# xmcd
#
# Track frame offsets:
#	150
#	18627
#	35535
#	61154
#	81747
#	98406
#	113384
#	141893
#	161106
#
# Disc length: 2483 seconds
#
# Revision: 1
# Processed by: cddbd v1.4PL0 Copyright (c) Steve Scherf et al.
# Submitted via: audiograbber 1.81.03
#
DISCID=6f09b109
DTITLE=Robben Ford - Talk to your daughter
DYEAR=1988
DGENRE=Blues
TTITLE0=Talk to your daughter
TTITLE1=Wild about you (can't hold out much longer)
TTITLE2=Help the poor
TTITLE3=Ain't got nothin' but the blues
TTITLE4=Born under a bad sign
TTITLE5=I got over it
TTITLE6=Revelation
TTITLE7=Getaway
TTITLE8=Can't let her go
EXTD=
EXTT0=
EXTT1=
EXTT2=
EXTT3=
EXTT4=
EXTT5=
EXTT6=
EXTT7=
EXTT8=
PLAYORDER=
